# xmcd
#
# Track frame offsets:
#	150
#	13004
#	22159
#	34372
#	46225
#	59300
#	70673
#	83186
#	99198
#	113853
#	125788
#	141436
#	153122
#	165337
#	176757
#	193681
#	212211
#	233434
#	247035
#	259975
#	273994
#	289494
#	308823
#	322127
#	337570
#
# Disc length: 4715 seconds
#
# Revision: 0
# Processed by: cddbd v1.5.2PL0 Copyright (c) Steve Scherf et al.
# Submitted via: EasyCDDAExtractor 12.0.1.1
#
DISCID=6c126919
DTITLE=Various Artist - Country Hits, Vol. 09
DYEAR=2009
DGENRE=Country
TTITLE0=Bobby Bare - Detroit City
TTITLE1=Jann Browne - Love's Gonna Live Here
TTITLE2=Bobby Bare - 500 Miles Away From Home
TTITLE3=Martina Mcbride - My Baby Loves Me
TTITLE4=Bobby Bare - Miller's Cave
TTITLE5=Patty Loveless - Timber, I'm Falling In Love
TTITLE6=Bobby Bare - Four Strong Winds
TTITLE7=Randy Travis - Forever and Ever, Amen
TTITLE8=Martina McBride - (I Never Promised You A) Rose Garden
TTITLE9=Bobby Bare - The Streets Of Baltimore
TTITLE10=Martina Mcbride - Happy Girl
TTITLE11=Patty Loveless - That's All It Took (Feat. Jedd Hughes)
TTITLE12=Bobby Bare - The Game Of Triangles
TTITLE13=Jann Browne - Hot Dog
TTITLE14=Martina McBride - You're Not Leaving Me
TTITLE15=Bobby Bare - Numbers
TTITLE16=Martina McBride - You've Been Driving All The Time
TTITLE17=Randy Travis - Diggin' Up Bones
TTITLE18=Bobby Bare - Vegas
TTITLE19=Patty Loveless - Next In Line
TTITLE20=Martina Mcbride - Independence Day
TTITLE21=Bobby Bare - Tequila Sheila
TTITLE22=Martina McBride - Make The World Go Away
TTITLE23=Randy Travis - He Walked On Water
TTITLE24=Bobby Bare - The Gambler
EXTD=
EXTT0=
EXTT1=
EXTT2=
EXTT3=
EXTT4=
EXTT5=
EXTT6=
EXTT7=
EXTT8=
EXTT9=
EXTT10=
EXTT11=
EXTT12=
EXTT13=
EXTT14=
EXTT15=
EXTT16=
EXTT17=
EXTT18=
EXTT19=
EXTT20=
EXTT21=
EXTT22=
EXTT23=
EXTT24=
PLAYORDER=
